<mxfile host="app.diagrams.net" agent="Mozilla/5.0 (Windows NT 10.0; Win64; x64) AppleWebKit/537.36 (KHTML, like Gecko) Chrome/141.0.0.0 Safari/537.36" version="28.2.5">
  <diagram name="Book Management System Flow" id="zezLNdZGK5uBMxsARTT0">
    <mxGraphModel dx="534" dy="270" grid="1" gridSize="10" guides="1" tooltips="1" connect="1" arrows="1" fold="1" page="1" pageScale="1" pageWidth="850" pageHeight="1100" math="0" shadow="0">
      <root>
        <mxCell id="0" />
        <mxCell id="1" parent="0" />
        <mxCell id="agdYzJ4rK2jxc9cW2kOH-1" value="Level 1 DFD: Book Recommendation and Sales System" style="text;html=1;strokeColor=none;fillColor=none;align=center;verticalAlign=middle;whiteSpace=wrap;rounded=0;fontSize=20;fontStyle=1;" vertex="1" parent="1">
          <mxGeometry x="500" y="20" width="800" height="40" as="geometry" />
        </mxCell>
        <mxCell id="agdYzJ4rK2jxc9cW2kOH-2" value="User" style="shape=actor;whiteSpace=wrap;html=1;" vertex="1" parent="1">
          <mxGeometry x="880" y="100" width="40" height="80" as="geometry" />
        </mxCell>
        <mxCell id="agdYzJ4rK2jxc9cW2kOH-3" value="Administrator" style="shape=actor;whiteSpace=wrap;html=1;" vertex="1" parent="1">
          <mxGeometry x="880" y="900" width="40" height="80" as="geometry" />
        </mxCell>
        <mxCell id="agdYzJ4rK2jxc9cW2kOH-4" value="Payment Gateway" style="rounded=1;whiteSpace=wrap;html=1;fillColor=#DDDDDD;strokeColor=#555555;" vertex="1" parent="1">
          <mxGeometry x="1540" y="320" width="140" height="60" as="geometry" />
        </mxCell>
        <mxCell id="agdYzJ4rK2jxc9cW2kOH-5" value="P1:&lt;br&gt;User&lt;br&gt;Management" style="ellipse;whiteSpace=wrap;html=1;aspect=fixed;" vertex="1" parent="1">
          <mxGeometry x="380" y="380" width="120" height="120" as="geometry" />
        </mxCell>
        <mxCell id="agdYzJ4rK2jxc9cW2kOH-6" value="P2:&lt;br&gt;Book&lt;br&gt;Management" style="ellipse;whiteSpace=wrap;html=1;aspect=fixed;" vertex="1" parent="1">
          <mxGeometry x="780" y="580" width="90" height="90" as="geometry" />
        </mxCell>
        <mxCell id="agdYzJ4rK2jxc9cW2kOH-7" value="P3:&lt;br&gt;Book&lt;br&gt;Discovery" style="ellipse;whiteSpace=wrap;html=1;aspect=fixed;" vertex="1" parent="1">
          <mxGeometry x="580" y="380" width="120" height="120" as="geometry" />
        </mxCell>
        <mxCell id="agdYzJ4rK2jxc9cW2kOH-8" value="P4:&lt;br&gt;User Interaction&lt;br&gt;Management" style="ellipse;whiteSpace=wrap;html=1;aspect=fixed;" vertex="1" parent="1">
          <mxGeometry x="840" y="380" width="120" height="120" as="geometry" />
        </mxCell>
        <mxCell id="agdYzJ4rK2jxc9cW2kOH-9" value="P5:&lt;br&gt;Recommendation&lt;br&gt;Engine" style="ellipse;whiteSpace=wrap;html=1;aspect=fixed;" vertex="1" parent="1">
          <mxGeometry x="1100" y="380" width="120" height="120" as="geometry" />
        </mxCell>
        <mxCell id="agdYzJ4rK2jxc9cW2kOH-10" value="P6:&lt;br&gt;Order &amp; Payment&lt;br&gt;Processing" style="ellipse;whiteSpace=wrap;html=1;aspect=fixed;" vertex="1" parent="1">
          <mxGeometry x="1290" y="300" width="120" height="120" as="geometry" />
        </mxCell>
        <mxCell id="agdYzJ4rK2jxc9cW2kOH-11" value="DS1: Users" style="shape=datastore;whiteSpace=wrap;html=1;fillColor=#EFEFFB;strokeColor=#555555;" vertex="1" parent="1">
          <mxGeometry x="380" y="760" width="120" height="80" as="geometry" />
        </mxCell>
        <mxCell id="agdYzJ4rK2jxc9cW2kOH-12" value="DS2: Books" style="shape=datastore;whiteSpace=wrap;html=1;fillColor=#EFEFFB;strokeColor=#555555;" vertex="1" parent="1">
          <mxGeometry x="580" y="760" width="120" height="80" as="geometry" />
        </mxCell>
        <mxCell id="agdYzJ4rK2jxc9cW2kOH-13" value="DS3: Reviews" style="shape=datastore;whiteSpace=wrap;html=1;fillColor=#EFEFFB;strokeColor=#555555;" vertex="1" parent="1">
          <mxGeometry x="880" y="710" width="120" height="80" as="geometry" />
        </mxCell>
        <mxCell id="agdYzJ4rK2jxc9cW2kOH-14" value="DS4: Wishlists" style="shape=datastore;whiteSpace=wrap;html=1;fillColor=#EFEFFB;strokeColor=#555555;" vertex="1" parent="1">
          <mxGeometry x="950" y="570" width="120" height="80" as="geometry" />
        </mxCell>
        <mxCell id="agdYzJ4rK2jxc9cW2kOH-15" value="DS5: Orders" style="shape=datastore;whiteSpace=wrap;html=1;fillColor=#EFEFFB;strokeColor=#555555;" vertex="1" parent="1">
          <mxGeometry x="1520" y="500" width="120" height="80" as="geometry" />
        </mxCell>
        <mxCell id="agdYzJ4rK2jxc9cW2kOH-16" value="Login Credentials" style="edgeStyle=elbowEdgeStyle;elbow=horizontal;html=1;curved=1;endArrow=classic;endFill=1;" edge="1" parent="1" source="agdYzJ4rK2jxc9cW2kOH-2" target="agdYzJ4rK2jxc9cW2kOH-5">
          <mxGeometry relative="1" as="geometry">
            <Array as="points">
              <mxPoint x="440" y="280" />
            </Array>
          </mxGeometry>
        </mxCell>
        <mxCell id="agdYzJ4rK2jxc9cW2kOH-17" value="Login Status" style="edgeStyle=elbowEdgeStyle;elbow=horizontal;html=1;curved=1;endArrow=classic;endFill=1;" edge="1" parent="1" source="agdYzJ4rK2jxc9cW2kOH-5" target="agdYzJ4rK2jxc9cW2kOH-2">
          <mxGeometry relative="1" as="geometry">
            <Array as="points">
              <mxPoint x="580" y="280" />
            </Array>
          </mxGeometry>
        </mxCell>
        <mxCell id="agdYzJ4rK2jxc9cW2kOH-18" value="Search Query / Browse Request" style="edgeStyle=elbowEdgeStyle;elbow=horizontal;html=1;curved=1;endArrow=classic;endFill=1;" edge="1" parent="1" source="agdYzJ4rK2jxc9cW2kOH-2" target="agdYzJ4rK2jxc9cW2kOH-7">
          <mxGeometry relative="1" as="geometry">
            <Array as="points">
              <mxPoint x="740" y="280" />
            </Array>
          </mxGeometry>
        </mxCell>
        <mxCell id="agdYzJ4rK2jxc9cW2kOH-19" value="Book Lists &amp;amp; &lt;br&gt;Details" style="edgeStyle=elbowEdgeStyle;elbow=horizontal;html=1;curved=1;endArrow=classic;endFill=1;" edge="1" parent="1" source="agdYzJ4rK2jxc9cW2kOH-7" target="agdYzJ4rK2jxc9cW2kOH-2">
          <mxGeometry x="-0.0833" relative="1" as="geometry">
            <Array as="points">
              <mxPoint x="780" y="220" />
            </Array>
            <mxPoint as="offset" />
          </mxGeometry>
        </mxCell>
        <mxCell id="agdYzJ4rK2jxc9cW2kOH-20" value="Review, Rating, &amp; Wishlist Data" style="edgeStyle=elbowEdgeStyle;elbow=horizontal;html=1;curved=1;endArrow=classic;endFill=1;" edge="1" parent="1" source="agdYzJ4rK2jxc9cW2kOH-2" target="agdYzJ4rK2jxc9cW2kOH-8">
          <mxGeometry x="-0.3" relative="1" as="geometry">
            <mxPoint as="offset" />
          </mxGeometry>
        </mxCell>
        <mxCell id="agdYzJ4rK2jxc9cW2kOH-21" value="Interaction Confirmation" style="edgeStyle=elbowEdgeStyle;elbow=horizontal;html=1;curved=1;endArrow=classic;endFill=1;" edge="1" parent="1" source="agdYzJ4rK2jxc9cW2kOH-8" target="agdYzJ4rK2jxc9cW2kOH-2">
          <mxGeometry x="-0.4" relative="1" as="geometry">
            <Array as="points">
              <mxPoint x="900" y="240" />
            </Array>
            <mxPoint as="offset" />
          </mxGeometry>
        </mxCell>
        <mxCell id="agdYzJ4rK2jxc9cW2kOH-22" value="Recommended&lt;br&gt;&amp;nbsp;Books List" style="edgeStyle=elbowEdgeStyle;elbow=horizontal;html=1;curved=1;endArrow=classic;endFill=1;" edge="1" parent="1" source="agdYzJ4rK2jxc9cW2kOH-9" target="agdYzJ4rK2jxc9cW2kOH-2">
          <mxGeometry x="-0.0417" y="10" relative="1" as="geometry">
            <Array as="points">
              <mxPoint x="1080" y="240" />
            </Array>
            <mxPoint as="offset" />
          </mxGeometry>
        </mxCell>
        <mxCell id="agdYzJ4rK2jxc9cW2kOH-23" value="Purchase Request" style="edgeStyle=elbowEdgeStyle;elbow=horizontal;html=1;curved=1;endArrow=classic;endFill=1;" edge="1" parent="1" source="agdYzJ4rK2jxc9cW2kOH-2" target="agdYzJ4rK2jxc9cW2kOH-10">
          <mxGeometry x="0.1111" y="-30" relative="1" as="geometry">
            <Array as="points">
              <mxPoint x="1220" y="240" />
            </Array>
            <mxPoint y="1" as="offset" />
          </mxGeometry>
        </mxCell>
        <mxCell id="agdYzJ4rK2jxc9cW2kOH-24" value="Order Confirmation" style="edgeStyle=elbowEdgeStyle;elbow=horizontal;html=1;curved=1;endArrow=classic;endFill=1;" edge="1" parent="1" source="agdYzJ4rK2jxc9cW2kOH-10" target="agdYzJ4rK2jxc9cW2kOH-2">
          <mxGeometry x="-0.0794" y="-20" relative="1" as="geometry">
            <Array as="points">
              <mxPoint x="1120" y="200" />
            </Array>
            <mxPoint as="offset" />
          </mxGeometry>
        </mxCell>
        <mxCell id="agdYzJ4rK2jxc9cW2kOH-25" value="Book Management Commands" style="edgeStyle=elbowEdgeStyle;elbow=horizontal;html=1;curved=1;endArrow=classic;endFill=1;" edge="1" parent="1" source="agdYzJ4rK2jxc9cW2kOH-3" target="agdYzJ4rK2jxc9cW2kOH-6">
          <mxGeometry relative="1" as="geometry">
            <Array as="points">
              <mxPoint x="840" y="870" />
            </Array>
          </mxGeometry>
        </mxCell>
        <mxCell id="agdYzJ4rK2jxc9cW2kOH-26" value="Action Confirmation" style="edgeStyle=elbowEdgeStyle;elbow=horizontal;html=1;curved=1;endArrow=classic;endFill=1;" edge="1" parent="1" source="agdYzJ4rK2jxc9cW2kOH-6" target="agdYzJ4rK2jxc9cW2kOH-3">
          <mxGeometry relative="1" as="geometry">
            <Array as="points">
              <mxPoint x="840" y="870" />
            </Array>
          </mxGeometry>
        </mxCell>
        <mxCell id="agdYzJ4rK2jxc9cW2kOH-27" value="Payment Authorization&lt;br&gt;&amp;nbsp;Request" style="edgeStyle=none;html=1;endArrow=classic;endFill=1;" edge="1" parent="1" source="agdYzJ4rK2jxc9cW2kOH-10" target="agdYzJ4rK2jxc9cW2kOH-4">
          <mxGeometry x="0.1186" y="35" relative="1" as="geometry">
            <mxPoint as="offset" />
          </mxGeometry>
        </mxCell>
        <mxCell id="agdYzJ4rK2jxc9cW2kOH-28" value="Transaction Status" style="edgeStyle=none;html=1;endArrow=classic;endFill=1;exitX=0;exitY=0.75;exitDx=0;exitDy=0;" edge="1" parent="1" source="agdYzJ4rK2jxc9cW2kOH-4">
          <mxGeometry x="-0.0778" y="18" relative="1" as="geometry">
            <mxPoint x="1520" y="369.9966666666666" as="sourcePoint" />
            <mxPoint x="1409.947984385541" y="374.5821673172691" as="targetPoint" />
            <mxPoint as="offset" />
          </mxGeometry>
        </mxCell>
        <mxCell id="agdYzJ4rK2jxc9cW2kOH-29" value="User Data Query" style="edgeStyle=elbowEdgeStyle;elbow=vertical;html=1;curved=1;endArrow=classic;endFill=1;" edge="1" parent="1" source="agdYzJ4rK2jxc9cW2kOH-5" target="agdYzJ4rK2jxc9cW2kOH-11">
          <mxGeometry relative="1" as="geometry" />
        </mxCell>
        <mxCell id="agdYzJ4rK2jxc9cW2kOH-30" value="Book Data Query" style="edgeStyle=elbowEdgeStyle;elbow=vertical;html=1;curved=1;endArrow=classic;endFill=1;" edge="1" parent="1" source="agdYzJ4rK2jxc9cW2kOH-7" target="agdYzJ4rK2jxc9cW2kOH-12">
          <mxGeometry relative="1" as="geometry" />
        </mxCell>
        <mxCell id="agdYzJ4rK2jxc9cW2kOH-31" value="Review Data &lt;br&gt;(Write)" style="edgeStyle=elbowEdgeStyle;elbow=vertical;html=1;curved=1;endArrow=classic;endFill=1;" edge="1" parent="1" source="agdYzJ4rK2jxc9cW2kOH-8" target="agdYzJ4rK2jxc9cW2kOH-13">
          <mxGeometry x="-0.081" y="5" relative="1" as="geometry">
            <mxPoint as="offset" />
          </mxGeometry>
        </mxCell>
        <mxCell id="agdYzJ4rK2jxc9cW2kOH-32" value="Wishlist Data (Write)" style="edgeStyle=elbowEdgeStyle;elbow=vertical;html=1;curved=1;endArrow=classic;endFill=1;" edge="1" parent="1" source="agdYzJ4rK2jxc9cW2kOH-8" target="agdYzJ4rK2jxc9cW2kOH-14">
          <mxGeometry relative="1" as="geometry">
            <Array as="points">
              <mxPoint x="1020" y="540" />
            </Array>
          </mxGeometry>
        </mxCell>
        <mxCell id="agdYzJ4rK2jxc9cW2kOH-33" value="Average Rating (Update)" style="edgeStyle=elbowEdgeStyle;elbow=horizontal;html=1;curved=1;endArrow=classic;endFill=1;" edge="1" parent="1" source="agdYzJ4rK2jxc9cW2kOH-8" target="agdYzJ4rK2jxc9cW2kOH-12">
          <mxGeometry relative="1" as="geometry">
            <Array as="points">
              <mxPoint x="760" y="600" />
            </Array>
          </mxGeometry>
        </mxCell>
        <mxCell id="agdYzJ4rK2jxc9cW2kOH-34" value="All Books Data" style="edgeStyle=elbowEdgeStyle;elbow=horizontal;html=1;curved=1;endArrow=classic;endFill=1;dashed=1;entryX=0.746;entryY=1.035;entryDx=0;entryDy=0;entryPerimeter=0;" edge="1" parent="1" source="agdYzJ4rK2jxc9cW2kOH-9" target="agdYzJ4rK2jxc9cW2kOH-12">
          <mxGeometry relative="1" as="geometry">
            <Array as="points">
              <mxPoint x="1210" y="1000" />
            </Array>
          </mxGeometry>
        </mxCell>
        <mxCell id="agdYzJ4rK2jxc9cW2kOH-35" value="Ratings Data Query" style="edgeStyle=elbowEdgeStyle;elbow=horizontal;html=1;curved=1;endArrow=classic;endFill=1;dashed=1;exitX=0.5;exitY=1;exitDx=0;exitDy=0;" edge="1" parent="1" source="agdYzJ4rK2jxc9cW2kOH-9" target="agdYzJ4rK2jxc9cW2kOH-13">
          <mxGeometry relative="1" as="geometry">
            <Array as="points">
              <mxPoint x="1130" y="690" />
            </Array>
          </mxGeometry>
        </mxCell>
        <mxCell id="agdYzJ4rK2jxc9cW2kOH-36" value="Preferences Data Query" style="edgeStyle=elbowEdgeStyle;elbow=horizontal;html=1;curved=1;endArrow=classic;endFill=1;dashed=1;" edge="1" parent="1" source="agdYzJ4rK2jxc9cW2kOH-9" target="agdYzJ4rK2jxc9cW2kOH-14">
          <mxGeometry relative="1" as="geometry" />
        </mxCell>
        <mxCell id="agdYzJ4rK2jxc9cW2kOH-37" value="Book Price Query" style="edgeStyle=elbowEdgeStyle;elbow=horizontal;html=1;curved=1;endArrow=classic;endFill=1;dashed=1;exitX=0.5;exitY=1;exitDx=0;exitDy=0;" edge="1" parent="1" source="agdYzJ4rK2jxc9cW2kOH-10" target="agdYzJ4rK2jxc9cW2kOH-12">
          <mxGeometry relative="1" as="geometry">
            <Array as="points">
              <mxPoint x="1410" y="1040" />
              <mxPoint x="200" y="500" />
            </Array>
          </mxGeometry>
        </mxCell>
        <mxCell id="agdYzJ4rK2jxc9cW2kOH-38" value="Order Record (Write/Update)" style="edgeStyle=elbowEdgeStyle;elbow=vertical;html=1;curved=1;endArrow=classic;endFill=1;" edge="1" parent="1" source="agdYzJ4rK2jxc9cW2kOH-10" target="agdYzJ4rK2jxc9cW2kOH-15">
          <mxGeometry relative="1" as="geometry" />
        </mxCell>
        <mxCell id="agdYzJ4rK2jxc9cW2kOH-39" value="Book Record &lt;br&gt;(Write/Update)" style="edgeStyle=elbowEdgeStyle;elbow=vertical;html=1;curved=1;endArrow=classic;endFill=1;entryX=1;entryY=0.5;entryDx=0;entryDy=0;" edge="1" parent="1" source="agdYzJ4rK2jxc9cW2kOH-6" target="agdYzJ4rK2jxc9cW2kOH-12">
          <mxGeometry x="-0.371" y="-10" relative="1" as="geometry">
            <Array as="points">
              <mxPoint x="810" y="810" />
            </Array>
            <mxPoint as="offset" />
          </mxGeometry>
        </mxCell>
        <mxCell id="agdYzJ4rK2jxc9cW2kOH-40" value="(Implicit Request)" style="edgeStyle=elbowEdgeStyle;elbow=horizontal;html=1;curved=1;endArrow=classic;endFill=1;dashed=1;" edge="1" parent="1" source="agdYzJ4rK2jxc9cW2kOH-2" target="agdYzJ4rK2jxc9cW2kOH-9">
          <mxGeometry relative="1" as="geometry">
            <Array as="points">
              <mxPoint x="1020" y="280" />
            </Array>
          </mxGeometry>
        </mxCell>
      </root>
    </mxGraphModel>
  </diagram>
</mxfile>
